<svg width="70" height="70" viewBox="0 0 70 70" fill="none" xmlns="http://www.w3.org/2000/svg">
<g id="Token/Avax/vuvietduc.com">
<path id="Ellipse" d="M35 70C54.3305 70 70 54.3305 70 35C70 15.6695 54.3305 0 35 0C15.6695 0 0 15.6695 0 35C0 54.3305 15.6695 70 35 70Z" fill="#E84142"/>
<path id="Vector" fill-rule="evenodd" clip-rule="evenodd" d="M25.0819 48.9281H18.2893C16.862 48.9281 16.157 48.9281 15.7271 48.6532C15.2628 48.3521 14.9791 47.8534 14.9447 47.303C14.9189 46.796 15.2714 46.1767 15.9765 44.9386L32.748 15.3764C33.4617 14.121 33.8228 13.4934 34.2785 13.2612C34.7686 13.0119 35.3533 13.0119 35.8434 13.2612C36.2991 13.4934 36.6602 14.121 37.3738 15.3764L40.8217 21.3951L40.8393 21.4258C41.6101 22.7725 42.0009 23.4554 42.1716 24.1722C42.3607 24.9547 42.3607 25.7801 42.1716 26.5625C41.9996 27.2848 41.6127 27.9726 40.8303 29.3397L32.0206 44.9128L31.9978 44.9527C31.2219 46.3105 30.8287 46.9987 30.2838 47.5179C29.6905 48.0855 28.9768 48.498 28.1944 48.7305C27.4807 48.9281 26.6811 48.9281 25.0819 48.9281ZM42.2352 48.9281H51.9681C53.404 48.9281 54.1264 48.9281 54.5565 48.6448C55.0207 48.3437 55.3129 47.8362 55.339 47.2863C55.3637 46.7955 55.0188 46.2004 54.3431 45.0342C54.3198 44.9945 54.2965 44.9541 54.2727 44.913L49.3974 36.5728L49.3419 36.4789C48.6569 35.3204 48.3111 34.7354 47.8669 34.5093C47.3771 34.2599 46.8006 34.2599 46.3107 34.5093C45.8636 34.7414 45.5025 35.3519 44.7889 36.5814L39.9309 44.9216L39.9143 44.9503C39.2031 46.1779 38.8477 46.7913 38.8734 47.2946C38.9077 47.845 39.1915 48.3521 39.6558 48.6532C40.0771 48.9281 40.7993 48.9281 42.2352 48.9281Z" fill="white"/>
</g>
</svg>
