<svg width="70" height="70" viewBox="0 0 70 70" fill="none" xmlns="http://www.w3.org/2000/svg">
<g id="Token/BTC/vuvietduc.com">
<path id="Vector" d="M68.9524 43.4674C64.2772 62.2175 45.2844 73.6286 26.53 68.9528C7.78336 64.2781 -3.62894 45.2863 1.04843 26.5372C5.72143 7.78487 24.7142 -3.62732 43.4631 1.04737C62.2163 5.72206 73.6276 24.7161 68.9524 43.4674Z" fill="#F7931A"/>
<path id="Vector_2" d="M50.4317 30.0136C51.1284 25.3564 47.5825 22.8528 42.7339 21.1827L44.3067 14.8739L40.4666 13.9169L38.9353 20.0594C37.9258 19.8078 36.8889 19.5705 35.8586 19.3353L37.4008 13.1523L33.5628 12.1953L31.9889 18.5019C31.1533 18.3116 30.333 18.1234 29.5367 17.9255L29.5411 17.9058L24.2452 16.5834L23.2236 20.685C23.2236 20.685 26.0728 21.338 26.0127 21.3784C27.568 21.7667 27.8491 22.7959 27.802 23.6119L26.0105 30.7989C26.1177 30.8263 26.2566 30.8656 26.4097 30.9269C26.2817 30.8952 26.145 30.8602 26.0039 30.8263L23.4927 40.8942C23.3023 41.3667 22.82 42.0755 21.7328 41.8064C21.7711 41.8622 18.9416 41.1097 18.9416 41.1097L17.0352 45.5055L22.0325 46.7513C22.9622 46.9842 23.8733 47.2281 24.7702 47.4578L23.1809 53.8388L27.0167 54.7958L28.5906 48.4827C29.6384 48.767 30.6556 49.0295 31.6509 49.2767L30.0825 55.5603L33.9227 56.5173L35.5119 50.1484C42.0602 51.3877 46.9842 50.8878 49.0569 44.9652C50.727 40.1964 48.9737 37.4456 45.5284 35.6519C48.0375 35.0733 49.9275 33.4228 50.4317 30.0136ZM41.6577 42.3172C40.4709 47.0859 32.4417 44.508 29.8386 43.8616L31.9473 35.408C34.5505 36.0577 42.898 37.3439 41.6577 42.3172ZM42.8455 29.9447C41.7627 34.2825 35.0798 32.0786 32.912 31.5383L34.8239 23.8711C36.9917 24.4114 43.9731 25.4198 42.8455 29.9447Z" fill="white"/>
</g>
</svg>
